<svg aria-hidden="true" style="position:absolute;width:0;height:0;overflow:hidden" xmlns="http://www.w3.org/2000/svg">
  <defs>
    <symbol id="radio-active-icon" viewBox="0 0 32 32">
      <path d="M25.143 16a9.143 9.143 0 1 1-18.286 0 9.143 9.143 0 0 1 18.286 0z"/>
      <path stroke-width="2.286" d="M30.857 16c0 8.205-6.652 14.857-14.857 14.857S1.143 24.205 1.143 16C1.143 7.795 7.795 1.143 16 1.143S30.857 7.795 30.857 16z"/>
    </symbol>
    <symbol id="users" viewBox="0 0 20 20">
      <path d="M5.667 15.083h-2.75c-.167 0-.25-.083-.334-.166-.083-.084-.166-.25-.083-.417.5-1.417 1.75-2.25 3.167-2.25 1.75 0 3.166-1.5 3.166-3.25S7.417 5.583 5.667 5.583 2.5 7.083 2.5 8.917c0 .833.333 1.666.833 2.25-1.083.583-1.916 1.5-2.416 2.75a2.3 2.3 0 0 0 .333 1.916c.417.584 1 .917 1.667.917h2.75c.5 0 .833-.333.833-.833 0-.5-.333-.834-.833-.834Zm-1.5-6.166c0-.917.666-1.584 1.5-1.584.833 0 1.5.75 1.5 1.584 0 .916-.667 1.583-1.5 1.583-.834 0-1.5-.75-1.5-1.583Z" fill="#101828"/>
      <path d="M19.083 13.417A6.244 6.244 0 0 0 16 10c.75-.667 1.167-1.667 1.167-2.833C17.167 5 15.5 3.25 13.5 3.25c-2 0-3.667 1.75-3.667 3.917C9.833 8.25 10.25 9.25 11 10a6.244 6.244 0 0 0-3.083 3.417c-.417.75-.25 1.583.166 2.25.417.666 1.167 1 1.917 1h6.917c.75 0 1.5-.417 1.916-1 .5-.667.584-1.5.25-2.25ZM11.417 7.25c0-1.25.916-2.25 2-2.25 1.083 0 2 1 2 2.25s-.917 2.25-2 2.25c-1.084 0-2-1.083-2-2.25Zm6 7.5c-.084.083-.25.333-.5.333H10c-.333 0-.5-.25-.5-.333a.711.711 0 0 1-.083-.75c.666-1.75 2.333-2.917 4.083-2.917S16.917 12.25 17.583 14c.084.333-.083.667-.166.75Z" fill="#101828"/>
    </symbol>
    <symbol id="gear-box" viewBox="0 0 20 20">
      <path d="M14.167 9.167h1.25a1.25 1.25 0 0 0 0-2.5h-1.25v4.166m0 3.334V17.5H15a1.666 1.666 0 1 0 0-3.333h-.833ZM2.5 4.167a1.667 1.667 0 1 0 3.333 0 1.667 1.667 0 0 0-3.333 0Z" stroke="#101828" stroke-width="1.5" stroke-linecap="round" stroke-linejoin="round"/>
      <path d="M4.167 5.833v2.5A.833.833 0 0 0 5 9.167h2.5m0 0V15a.833.833 0 0 0 .833.833h2.5M7.5 9.167h3.333" stroke="#101828" stroke-width="1.5" stroke-linecap="round" stroke-linejoin="round"/>
    </symbol>
    <symbol id="gas-station" viewBox="0 0 20 20">
      <path d="m16.475 6.025.008-.008-3.1-3.1-.883.883 1.758 1.758a2.077 2.077 0 0 0-.731 3.415 2.083 2.083 0 0 0 2.306.435v6.009a.833.833 0 0 1-1.666 0v-3.75A1.666 1.666 0 0 0 12.5 10h-.833V4.167A1.667 1.667 0 0 0 10 2.5H5a1.667 1.667 0 0 0-1.667 1.667V17.5h8.334v-6.25h1.25v4.167a2.083 2.083 0 0 0 4.166 0V7.5c0-.575-.233-1.1-.608-1.475ZM10 11.25v4.583H5V10h5v1.25Zm0-2.917H5V4.167h5v4.166Zm5 0a.833.833 0 1 1 0-1.666.833.833 0 0 1 0 1.666Z" fill="#101828"/>
    </symbol>
    <symbol id="cutlery" viewBox="0 0 20 20">
      <path d="M15.833 12.5v-10c-4.013 3.828-4.185 6.932-4.166 10h4.166Zm0 0v5H15V15M6.667 3.333V17.5m-2.5-14.167v2.5a2.5 2.5 0 1 0 5 0v-2.5" stroke="#101828" stroke-width="1.5" stroke-linecap="round" stroke-linejoin="round"/>
    </symbol>
    <symbol id="route" viewBox="0 0 20 20">
      <g clip-path="url(#a)" fill-rule="evenodd" clip-rule="evenodd" fill="#101828">
          <path d="M4.167 2.5a1.667 1.667 0 1 0 0 3.333 1.667 1.667 0 0 0 0-3.333ZM.833 4.167a3.333 3.333 0 1 1 6.667 0 3.333 3.333 0 0 1-6.667 0ZM15.833 14.167a1.667 1.667 0 1 0 0 3.333 1.667 1.667 0 0 0 0-3.333ZM12.5 15.833a3.333 3.333 0 1 1 6.667 0 3.333 3.333 0 0 1-6.667 0Z"/>
          <path d="M8.333 4.167c0-.46.373-.834.834-.834h5.25c2.581 0 3.512 3.378 1.242 4.643l-9.67 5.503A.81.81 0 0 0 6.416 15h4.416a.833.833 0 0 1 0 1.667H6.417c-2.582 0-3.512-3.378-1.242-4.643l9.67-5.503A.81.81 0 0 0 14.417 5h-5.25a.833.833 0 0 1-.834-.833Z"/>
      </g>
      <defs>
          <clipPath id="a">
              <path fill="#fff" d="M0 0h20v20H0z"/>
          </clipPath>
      </defs>
    </symbol>
    <symbol id="bed" viewBox="0 0 20 20">
      <path d="M1.875 16.25v-4.375a2.507 2.507 0 0 1 2.5-2.5h11.25a2.507 2.507 0 0 1 2.5 2.5v4.375M15 9.375H3.75V5.312A1.567 1.567 0 0 1 5.313 3.75h9.375a1.567 1.567 0 0 1 1.562 1.563v4.062H15Z" stroke="#101828" stroke-width="1.4" stroke-linecap="round" stroke-linejoin="round"/>
      <path d="M1.875 16.25v-.313A.94.94 0 0 1 2.813 15h14.374a.94.94 0 0 1 .938.938v.312M4.375 9.375V8.75a1.254 1.254 0 0 1 1.25-1.25H8.75A1.254 1.254 0 0 1 10 8.75m0 0v.625m0-.625a1.253 1.253 0 0 1 1.25-1.25h3.125a1.254 1.254 0 0 1 1.25 1.25v.625" stroke="#101828" stroke-width="1.4" stroke-linecap="round" stroke-linejoin="round"/>
    </symbol>
    <symbol id="wind" viewBox="0 0 20 16">
      <mask id="a" fill="#fff">
          <path d="M9.69 0a4.1 4.1 0 0 0-2.573.906A3.987 3.987 0 0 0 5.71 3.212l-.072.36a.606.606 0 0 0 .256.65.63.63 0 0 0 .968-.41l.074-.357a2.763 2.763 0 0 1 1.086-1.676 2.842 2.842 0 0 1 3.748.367c.468.507.728 1.167.73 1.853a2.75 2.75 0 0 1-.824 1.958 2.836 2.836 0 0 1-1.989.812H.626a.63.63 0 0 0-.442.18.61.61 0 0 0 0 .87A.63.63 0 0 0 .625 8h9.063a4.094 4.094 0 0 0 2.808-1.205A3.97 3.97 0 0 0 13.652 4a3.97 3.97 0 0 0-1.154-2.794A4.094 4.094 0 0 0 9.69 0Zm7.185 5.538a3.15 3.15 0 0 0-2.21.902 3.053 3.053 0 0 0-.915 2.175c0 .164.066.32.183.436a.63.63 0 0 0 .884 0A.61.61 0 0 0 15 8.615c0-.365.11-.722.316-1.025.206-.304.499-.54.841-.68a1.902 1.902 0 0 1 2.044.4 1.82 1.82 0 0 1 .406 2.012 1.853 1.853 0 0 1-.69.828c-.309.203-.671.311-1.042.311H.625a.63.63 0 0 0-.442.18.61.61 0 0 0 0 .871.63.63 0 0 0 .442.18h12.188c.414.001.811.164 1.103.453.293.29.457.68.456 1.089-.001.408-.166.799-.46 1.087a1.595 1.595 0 0 1-2.126.082 1.55 1.55 0 0 1-.538-.928l-.007-.037a.609.609 0 0 0-.248-.413.63.63 0 0 0-.983.37.608.608 0 0 0-.001.244l.006.037c.111.65.452 1.24.963 1.665a2.857 2.857 0 0 0 3.82-.151c.528-.52.826-1.224.827-1.96 0-.57-.175-1.098-.474-1.538h1.724a3.15 3.15 0 0 0 2.21-.9c.586-.578.915-1.36.915-2.177 0-.816-.33-1.598-.915-2.175a3.15 3.15 0 0 0-2.21-.902Z"/>
      </mask>
      <path d="M9.69 0a4.1 4.1 0 0 0-2.573.906A3.987 3.987 0 0 0 5.71 3.212l-.072.36a.606.606 0 0 0 .256.65.63.63 0 0 0 .968-.41l.074-.357a2.763 2.763 0 0 1 1.086-1.676 2.842 2.842 0 0 1 3.748.367c.468.507.728 1.167.73 1.853a2.75 2.75 0 0 1-.824 1.958 2.836 2.836 0 0 1-1.989.812H.626a.63.63 0 0 0-.442.18.61.61 0 0 0 0 .87A.63.63 0 0 0 .625 8h9.063a4.094 4.094 0 0 0 2.808-1.205A3.97 3.97 0 0 0 13.652 4a3.97 3.97 0 0 0-1.154-2.794A4.094 4.094 0 0 0 9.69 0Zm7.185 5.538a3.15 3.15 0 0 0-2.21.902 3.053 3.053 0 0 0-.915 2.175c0 .164.066.32.183.436a.63.63 0 0 0 .884 0A.61.61 0 0 0 15 8.615c0-.365.11-.722.316-1.025.206-.304.499-.54.841-.68a1.902 1.902 0 0 1 2.044.4 1.82 1.82 0 0 1 .406 2.012 1.853 1.853 0 0 1-.69.828c-.309.203-.671.311-1.042.311H.625a.63.63 0 0 0-.442.18.61.61 0 0 0 0 .871.63.63 0 0 0 .442.18h12.188c.414.001.811.164 1.103.453.293.29.457.68.456 1.089-.001.408-.166.799-.46 1.087a1.595 1.595 0 0 1-2.126.082 1.55 1.55 0 0 1-.538-.928l-.007-.037a.609.609 0 0 0-.248-.413.63.63 0 0 0-.983.37.608.608 0 0 0-.001.244l.006.037c.111.65.452 1.24.963 1.665a2.857 2.857 0 0 0 3.82-.151c.528-.52.826-1.224.827-1.96 0-.57-.175-1.098-.474-1.538h1.724a3.15 3.15 0 0 0 2.21-.9c.586-.578.915-1.36.915-2.177 0-.816-.33-1.598-.915-2.175a3.15 3.15 0 0 0-2.21-.902Z" fill="#101828"/>
      <path d="m9.69 0 .124-4.998L9.75-5H9.69l.001 5ZM5.71 3.212l-4.9-.997-.001.009 4.901.988Zm-.072.36L10.5 4.737l.02-.088.019-.089-4.901-.988Zm1.224.24L1.965 2.805l-.019.093-.015.092 4.931.824Zm.074-.357L2.04 2.445v.001l4.897 1.009Zm5.564.544h5v-.013L12.5 4Zm-2.813 2.77v5h.003l-.002-5ZM0 7.385h-5 5ZM9.688 8v5h.06l.06-.002L9.688 8ZM15 8.615h5-5ZM0 11.077h-5 5Zm12.813.615.01-5h-.01v5Zm-.007 3.077.01-5h-.013l.003 5Zm-1.558-1.294-4.93.834.001.008.002.009 4.927-.851Zm-.007-.037-4.953.681.01.077.013.076 4.93-.835Zm-1.232.201 4.93-.834-.013-.075-.015-.074-4.902.983Zm.006.037-4.93.835.002.008 4.928-.843ZM12.806 16l.002-5h-.003l.001 5Zm2.819-2.77 5 .01v-.01h-5Zm-.474-1.538v-5H5.705l5.312 7.812 4.134-2.812ZM9.69-5a9.1 9.1 0 0 0-5.712 2.015l6.28 7.782A.901.901 0 0 1 9.691 5L9.69-5ZM3.977-2.985a8.987 8.987 0 0 0-3.167 5.2l9.8 1.994c-.05.245-.182.45-.353.588l-6.28-7.782ZM.809 2.224l-.073.359L10.54 4.56l.072-.359L.81 2.224Zm-.034.182a5.606 5.606 0 0 0-.071 2.267l9.852-1.712c.103.59.083 1.194-.056 1.776L.775 2.406ZM.704 4.673a5.61 5.61 0 0 0 .828 2.104l8.376-5.463a4.39 4.39 0 0 1 .648 1.647L.704 4.673Zm.828 2.104a5.62 5.62 0 0 0 1.574 1.595L8.682.07a4.38 4.38 0 0 1 1.226 1.243L1.532 6.777Zm1.574 1.595a5.63 5.63 0 0 0 2.051.85L7.09-.589a4.37 4.37 0 0 1 1.593.66l-5.576 8.3Zm2.051.85c.73.144 1.483.142 2.213-.007L5.375-.584a4.365 4.365 0 0 1 1.714-.005L5.157 9.222Zm2.213-.007a5.63 5.63 0 0 0 2.046-.863L3.786.087a4.37 4.37 0 0 1 1.589-.67L7.37 9.214Zm2.046-.863a5.62 5.62 0 0 0 1.564-1.606L2.568 1.338A4.38 4.38 0 0 1 3.787.087l5.63 8.265Zm1.564-1.606a5.61 5.61 0 0 0 .814-2.11L1.931 2.99a4.39 4.39 0 0 1 .637-1.65l8.412 5.407Zm.78-1.925.074-.358-9.795-2.017-.074.358 9.795 2.017Zm.073-.356a2.237 2.237 0 0 1-.873 1.36l-5.877-8.09a7.763 7.763 0 0 0-3.044 4.71l9.794 2.02Zm-.873 1.36a2.158 2.158 0 0 1-1.479.404l.973-9.953a7.842 7.842 0 0 0-5.371 1.458l5.877 8.09Zm-1.479.404a2.174 2.174 0 0 1-1.386-.694l7.351-6.779a7.826 7.826 0 0 0-4.992-2.48l-.973 9.953Zm-1.386-.694A2.257 2.257 0 0 1 7.5 4.011l10-.025a7.743 7.743 0 0 0-2.053-5.23l-7.352 6.78ZM7.5 4c0-.617.25-1.192.668-1.604l7.017 7.124A7.749 7.749 0 0 0 17.5 4h-10Zm.668-1.604c.415-.409.962-.626 1.517-.626l.005 10a7.836 7.836 0 0 0 5.495-2.25L8.167 2.395Zm1.52-.626H.624v10h9.063v-10Zm-9.063 0a5.63 5.63 0 0 0-3.95 1.618l7.016 7.125A4.37 4.37 0 0 1 .625 11.77v-10Zm-3.95 1.618A5.61 5.61 0 0 0-5 7.385H5a4.39 4.39 0 0 1-1.309 3.127l-7.016-7.125ZM-5 7.385a5.61 5.61 0 0 0 1.675 3.998l7.016-7.126A4.39 4.39 0 0 1 5 7.385H-5Zm1.675 3.998A5.63 5.63 0 0 0 .625 13V3a4.37 4.37 0 0 1 3.066 1.257l-7.016 7.126ZM.625 13h9.063V3H.624v10Zm9.183-.002a9.094 9.094 0 0 0 6.239-2.683l-7.102-7.04A.906.906 0 0 1 9.567 3L9.808 13Zm6.239-2.683a8.97 8.97 0 0 0 2.605-6.312L8.652 4c0-.286.114-.544.293-.725l7.102 7.04Zm2.605-6.312a8.969 8.969 0 0 0-2.601-6.314L8.945 4.725A1.03 1.03 0 0 1 8.652 4l10 .003ZM16.05-2.311a9.094 9.094 0 0 0-6.237-2.687l-.248 9.996a.907.907 0 0 1-.621-.273l7.106-7.036Zm.824 2.85a8.15 8.15 0 0 0-5.718 2.338l7.016 7.126a1.85 1.85 0 0 1-1.298.536v-10Zm-5.718 2.338A8.053 8.053 0 0 0 8.75 8.615h10c0 .536-.217 1.033-.577 1.387l-7.016-7.125ZM8.75 8.615c0 1.515.612 2.951 1.675 3.998l7.016-7.125a4.39 4.39 0 0 1 1.309 3.127h-10Zm1.675 3.998a5.63 5.63 0 0 0 3.95 1.618v-10a4.37 4.37 0 0 1 3.066 1.257l-7.016 7.125Zm3.95 1.618a5.63 5.63 0 0 0 3.95-1.618l-7.016-7.125a4.37 4.37 0 0 1 3.066-1.257v10Zm3.95-1.618A5.611 5.611 0 0 0 20 8.615H10a4.39 4.39 0 0 1 1.309-3.127l7.016 7.125ZM20 8.615c0 .642-.194 1.262-.547 1.782L11.18 4.782A6.826 6.826 0 0 0 10 8.615h10Zm-.547 1.782c-.352.52-.845.913-1.407 1.143l-3.777-9.26a6.868 6.868 0 0 0-3.09 2.502l8.274 5.615Zm-1.407 1.143a3.098 3.098 0 0 1-1.766.171l1.922-9.813a6.902 6.902 0 0 0-3.933.382l3.777 9.26Zm-1.766.171a3.116 3.116 0 0 1-1.587-.838l7.016-7.126a6.884 6.884 0 0 0-3.507-1.85l-1.922 9.814Zm-1.587-.838c-.443-.436-.753-1.001-.88-1.628l9.802-1.98a6.837 6.837 0 0 0-1.906-3.518l-7.016 7.126Zm-.88-1.628a3.18 3.18 0 0 1 .185-1.862l9.218 3.878a6.82 6.82 0 0 0 .399-3.996l-9.802 1.98Zm.185-1.862a3.147 3.147 0 0 1 1.17-1.41l5.497 8.354a6.853 6.853 0 0 0 2.551-3.066l-9.218-3.878Zm1.17-1.41a3.104 3.104 0 0 1 1.707-.511v10a6.896 6.896 0 0 0 3.79-1.134l-5.496-8.355Zm1.707-.511H.625v10h16.25v-10Zm-16.25 0a5.63 5.63 0 0 0-3.95 1.617l7.016 7.126A4.37 4.37 0 0 1 .625 15.46v-10Zm-3.95 1.617A5.61 5.61 0 0 0-5 11.077H5a4.39 4.39 0 0 1-1.309 3.128l-7.016-7.126ZM-5 11.077a5.61 5.61 0 0 0 1.675 3.998l7.016-7.126A4.39 4.39 0 0 1 5 11.077H-5Zm1.675 3.998a5.63 5.63 0 0 0 3.95 1.617v-10A4.37 4.37 0 0 1 3.691 7.95l-7.016 7.126Zm3.95 1.617h12.188v-10H.624v10Zm12.178 0a3.425 3.425 0 0 1-2.402-.991l7.03-7.112a6.575 6.575 0 0 0-4.609-1.897l-.02 10Zm-2.402-.991a3.474 3.474 0 0 1-1.03-2.477l10 .02a6.527 6.527 0 0 0-1.94-4.655l-7.03 7.112Zm-1.03-2.477a3.473 3.473 0 0 1 1.04-2.473l7.002 7.14a6.526 6.526 0 0 0 1.959-4.647l-10-.02Zm1.04-2.473a3.425 3.425 0 0 1 2.405-.982l-.02 10a6.575 6.575 0 0 0 4.617-1.878l-7.002-7.14Zm2.392-.982c.786 0 1.559.273 2.178.787l-6.39 7.693a6.595 6.595 0 0 0 4.219 1.52l-.007-10Zm2.178.787a3.45 3.45 0 0 1 1.193 2.067l-9.853 1.703a6.55 6.55 0 0 0 2.27 3.923l6.39-7.693Zm1.196 2.084-.006-.037-9.86 1.669.007.037 9.86-1.669Zm.018.116a5.61 5.61 0 0 0-.751-2.128l-8.568 5.157a4.39 4.39 0 0 1-.588-1.666l9.907-1.363Zm-.751-2.128a5.62 5.62 0 0 0-1.512-1.648l-5.878 8.09a4.38 4.38 0 0 1-1.178-1.285l8.568-5.157ZM13.932 8.98a5.63 5.63 0 0 0-2.015-.924l-2.299 9.732a4.37 4.37 0 0 1-1.564-.718l5.878-8.09Zm-2.015-.924a5.634 5.634 0 0 0-2.206-.077l1.616 9.868a4.364 4.364 0 0 1-1.709-.06l2.299-9.731ZM9.71 7.979a5.631 5.631 0 0 0-2.071.78l5.295 8.483a4.369 4.369 0 0 1-1.608.605L9.711 7.98Zm-2.071.78a5.62 5.62 0 0 0-1.622 1.535l8.18 5.752c-.34.482-.77.888-1.263 1.196L7.64 8.759Zm-1.622 1.535a5.61 5.61 0 0 0-.9 2.066l9.784 2.07a4.392 4.392 0 0 1-.704 1.616l-8.18-5.752Zm-.9 2.066a5.606 5.606 0 0 0-.012 2.263l9.805-1.967a4.393 4.393 0 0 1-.01 1.773L5.119 12.36Zm-.04 2.114.007.037 9.86-1.67-.006-.036-9.86 1.669Zm.009.045a7.777 7.777 0 0 0 2.692 4.665l6.399-7.685c.395.329.674.799.765 1.334L5.087 14.52Zm2.692 4.665A7.856 7.856 0 0 0 12.807 21l-.002-10c.492 0 .979.17 1.373.499l-6.399 7.685ZM12.804 21a7.84 7.84 0 0 0 5.498-2.244l-7.008-7.133A2.16 2.16 0 0 1 12.807 11l-.004 10Zm5.498-2.244a7.753 7.753 0 0 0 2.323-5.516l-10-.018c.001-.615.25-1.189.668-1.6l7.009 7.134Zm2.323-5.525c0-1.61-.498-3.113-1.339-4.35l-8.27 5.623a2.274 2.274 0 0 1-.391-1.273h10Zm-5.474 3.461h1.724v-10h-1.724v10Zm1.724 0a8.15 8.15 0 0 0 5.718-2.338l-7.016-7.126a1.85 1.85 0 0 1 1.298-.536v10Zm5.718-2.338A8.053 8.053 0 0 0 25 8.615H15c0-.535.217-1.032.577-1.387l7.016 7.126ZM25 8.615c0-2.167-.875-4.23-2.407-5.738l-7.016 7.125A1.947 1.947 0 0 1 15 8.615h10Zm-2.407-5.738A8.15 8.15 0 0 0 16.875.538v10a1.85 1.85 0 0 1-1.298-.536l7.016-7.125Z" fill="#101828" mask="url(#a)"/>
    </symbol>
    <symbol id="calendar" viewBox="0 0 20 20">
      <path d="M15.833 3.333H4.167C3.247 3.333 2.5 4.08 2.5 5v11.667c0 .92.746 1.666 1.667 1.666h11.666c.92 0 1.667-.746 1.667-1.666V5c0-.92-.746-1.667-1.667-1.667ZM13.333 1.667V5M6.667 1.667V5M2.5 8.333h15" stroke="#101828" stroke-width="1.5" stroke-linecap="round" stroke-linejoin="round"/>
    </symbol>
    <symbol id="AC" viewBox="0 0 20 20">
      <g clip-path="url(#a)" stroke="#101828" stroke-width="1.5" stroke-linecap="round" stroke-linejoin="round">
          <path d="M17.857.714H2.143A1.429 1.429 0 0 0 .714 2.143v7.143a1.429 1.429 0 0 0 1.429 1.428h15.714a1.428 1.428 0 0 0 1.429-1.428V2.143A1.428 1.428 0 0 0 17.857.714Z"/>
          <path d="M15.714 10.714V7.857a1.428 1.428 0 0 0-1.428-1.428H5.714a1.429 1.429 0 0 0-1.428 1.428v2.857m-.715 7.143h.143a2 2 0 0 0 2-2v-1.571m10.715 3.571h-.143a2 2 0 0 1-2-2v-1.571m-4.286 5v-5"/>
      </g>
      <defs>
          <clipPath id="a">
              <path fill="#fff" d="M0 0h20v20H0z"/>
          </clipPath>
      </defs>
    </symbol>
    <symbol id="CD" viewBox="0 0 20 20">
      <path d="M10 17.5a7.5 7.5 0 1 0 0-15 7.5 7.5 0 0 0 0 15Z" stroke="#101828" stroke-width="1.5"/>
      <path d="M5.417 10A4.583 4.583 0 0 1 10 5.417" stroke="#101828" stroke-width="1.5" stroke-linecap="round"/>
      <path d="M10 12.083a2.083 2.083 0 1 0 0-4.166 2.083 2.083 0 0 0 0 4.166Z" stroke="#101828" stroke-width="1.5"/>
    </symbol>
    <symbol id="radio" viewBox="0 0 20 20">
      <path d="M1.667 11.667c0-3.143 0-4.715.976-5.69C3.62 5 5.191 5 8.333 5h3.334c3.142 0 4.714 0 5.69.977.976.975.976 2.547.976 5.69 0 3.142 0 4.714-.976 5.69s-2.548.976-5.69.976H8.333c-3.142 0-4.714 0-5.69-.976s-.976-2.548-.976-5.69Z" stroke="#101828" stroke-width="1.3"/>
      <path d="M4.167 9.167A1.667 1.667 0 0 1 5.833 7.5h8.334a1.666 1.666 0 1 1 0 3.333H5.833a1.667 1.667 0 0 1-1.666-1.666Zm3.333 5a1.25 1.25 0 1 1-2.5 0 1.25 1.25 0 0 1 2.5 0Z" stroke="#101828" stroke-width="1.3"/>
      <path d="M12.5 9.583v1.25m-1.667 3.334H15M5.417 5 12.5 1.667" stroke="#101828" stroke-width="1.3" stroke-linecap="round"/>
    </symbol>
    <symbol id="hob" viewBox="0 0 20 20">
      <path d="M7.5 4.167h10a.833.833 0 0 1 .833.833v10.833a.833.833 0 0 1-.833.834h-10m0-12.5h-5A.833.833 0 0 0 1.667 5v10.833a.833.833 0 0 0 .833.834h5m0-12.5v12.5" stroke="#101828" stroke-width="1.5"/>
      <path d="M4.583 7.083V8.75m10.834-2.083-5 7.083" stroke="#101828" stroke-width="1.5" stroke-linecap="round" stroke-linejoin="round"/>
      <path d="M5.417 11.25a.833.833 0 1 0-1.667 0 .833.833 0 0 0 1.667 0ZM5.417 13.75a.833.833 0 1 0-1.667 0 .833.833 0 0 0 1.667 0Z" fill="#101828"/>
    </symbol>
    <symbol id="toilet" viewBox="0 0 20 20">
        <g clip-path="url(#a)">
            <path d="M15 2.5c1.212 0 2.043 1.03 2.525 2.07.476 1.034.765 2.382.804 3.842l.004.338v7.917a.832.832 0 0 1-.866.833l-.104-.012L15 17.095l-2.363.393a.833.833 0 0 1-.302-.005l-.098-.026L10 16.712l-2.237.745a.833.833 0 0 1-1.09-.691l-.006-.1v-2.439C6.224 14.686 5.67 15 5 15c-1.212 0-2.043-1.03-2.525-2.07-.512-1.113-.808-2.592-.808-4.18 0-1.588.295-3.067.808-4.18.46-.994 1.238-1.977 2.362-2.063L5 2.5h10Zm0 1.667H7.318c.075.133.144.268.206.404.513 1.112.81 2.59.81 4.179v6.76l1.403-.467a.834.834 0 0 1 .526 0l2.305.768 2.295-.383a.836.836 0 0 1 .274 0l1.53.255V8.75c0-1.403-.265-2.633-.656-3.48-.423-.92-.842-1.103-1.011-1.103Zm-10 0c-.17 0-.588.183-1.01 1.102-.393.848-.657 2.078-.657 3.481s.264 2.633.656 3.48c.423.92.842 1.103 1.011 1.103.17 0 .587-.183 1.01-1.102.392-.848.657-2.078.657-3.481s-.265-2.633-.656-3.48C5.587 4.35 5.169 4.166 5 4.166Zm0 2.916c.46 0 .833.746.833 1.667 0 .92-.373 1.667-.833 1.667-.46 0-.833-.746-.833-1.667 0-.92.373-1.667.833-1.667Z" fill="#101828"/>
        </g>
        <defs>
            <clipPath id="a">
                <path fill="#fff" d="M0 0h20v20H0z"/>
            </clipPath>
        </defs>
    </symbol>
    <symbol id="shower" viewBox="0 0 20 20">
        <path d="m3.333 3.333 2.084 2.084m5.833 0a4.125 4.125 0 0 0-5.833 5.833M12.5 4.167 4.167 12.5m7.5 1.667v.008m-3.334-.842v.009m2.5-2.509v.009m2.5-2.509v.009m-4.166 8.325v.008m5-5.008v.008m2.5-2.508v.008" stroke="#101828" stroke-width="1.6" stroke-linecap="round" stroke-linejoin="round"/>
    </symbol>
    <symbol id="freezer" viewBox="0 0 20 20">
      <path d="M14.625 1.875H5.379c-.69 0-1.25.56-1.25 1.25v12.742c0 .69.56 1.25 1.25 1.25h9.246c.69 0 1.25-.56 1.25-1.25V3.125c0-.69-.56-1.25-1.25-1.25Z" stroke="#101828" stroke-width="1.3" stroke-linecap="round" stroke-linejoin="round"/>
      <path d="M4.13 8.204h11.74m-9.424-1.6V4.08m0 8.071V9.625m-1.18 7.492v.437a.57.57 0 0 0 .567.571h1.03a.57.57 0 0 0 .57-.57v-.438m5.13 0v.437a.57.57 0 0 0 .57.571h1.034a.57.57 0 0 0 .57-.57v-.438" stroke="#101828" stroke-width="1.3" stroke-linecap="round" stroke-linejoin="round"/>
    </symbol>
    <symbol id="flame" viewBox="0 0 20 20">
        <path d="M15.67 8.745c-.23-.284-.51-.53-.77-.775-.67-.566-1.43-.973-2.07-1.568-1.49-1.379-1.82-3.655-.87-5.402-.95.217-1.78.708-2.489 1.247-2.59 1.964-3.61 5.43-2.39 8.405.04.095.08.19.08.312 0 .208-.15.397-.35.472-.23.095-.47.038-.66-.113a.556.556 0 0 1-.14-.16c-1.13-1.351-1.31-3.287-.55-4.836-1.669 1.284-2.579 3.457-2.449 5.506.06.472.12.945.29 1.417.14.566.41 1.133.71 1.634 1.08 1.634 2.95 2.805 4.96 3.04 2.139.256 4.428-.112 6.068-1.51 1.83-1.568 2.47-4.08 1.53-6.234l-.13-.245c-.21-.435-.77-1.19-.77-1.19Zm-3.16 5.95c-.28.226-.74.472-1.1.566-1.12.378-2.239-.15-2.899-.774 1.19-.264 1.9-1.095 2.11-1.936.17-.756-.15-1.379-.28-2.106-.12-.7-.1-1.294.17-1.946.19.359.39.718.63 1.001.77.945 1.98 1.36 2.24 2.645.04.132.06.264.06.406.03.774-.33 1.624-.93 2.144Z" fill="#101828"/>
    </symbol>
    <symbol id="droplet" viewBox="0 0 20 20">
      <path d="M15.625 12.5c0 3.452-2.173 5.625-5.625 5.625S4.375 15.952 4.375 12.5c0-3.704 4.032-8.705 5.27-10.152a.469.469 0 0 1 .711 0c1.237 1.447 5.269 6.448 5.269 10.152Z" stroke="#000" stroke-width="1.5" stroke-miterlimit="10"/>
      <path d="M13.438 12.813a2.812 2.812 0 0 1-2.813 2.812" stroke="#000" stroke-width="1.5" stroke-linecap="round" stroke-linejoin="round"/>
    </symbol>
    <symbol id="microwave" viewBox="0 0 20 20">
        <path d="M18.571 3.571H1.43a.714.714 0 0 0-.715.715v11.428a.714.714 0 0 0 .715.715H18.57a.714.714 0 0 0 .715-.715V4.286a.715.715 0 0 0-.715-.715Z" stroke="#101828" stroke-width="1.4" stroke-linecap="round" stroke-linejoin="round"/>
        <path d="M15.714 7.143h.715M15.714 10h.715m-4.286-3.571H4.286a.714.714 0 0 0-.715.714v5.714a.715.715 0 0 0 .715.714h7.857a.714.714 0 0 0 .714-.714V7.143a.714.714 0 0 0-.714-.714Z" stroke="#101828" stroke-width="1.4" stroke-linecap="round" stroke-linejoin="round"/>
    </symbol>
    <symbol id="heart-empty" viewBox="0 0 24 24">
        <path d="M20.84 4.61a5.5 5.5 0 0 0-7.78 0L12 5.67l-1.06-1.06a5.501 5.501 0 1 0-7.78 7.78l1.06 1.06L12 21.23l7.78-7.78 1.06-1.06a5.5 5.5 0 0 0 0-7.78Z" stroke="#101828" stroke-width="2.3" stroke-linecap="round" stroke-linejoin="round"/>
    </symbol>
    <symbol id="heart-full" viewBox="0 0 24 24">
        <path d="M20.84 4.61a5.5 5.5 0 0 0-7.78 0L12 5.67l-1.06-1.06a5.501 5.501 0 1 0-7.78 7.78l1.06 1.06L12 21.23l7.78-7.78 1.06-1.06a5.5 5.5 0 0 0 0-7.78Z" fill="#E44848" stroke="#E44848" stroke-width="2.3" stroke-linecap="round" stroke-linejoin="round"/>
    </symbol>
  </defs>
</svg>
